#!OML:ASF H:\Male1\Project 1\Capture day 1\Session 1\Male1.ASF
:FULLY-SPECIFIED
:DEGREES
270
root 8.07098 13.5071 5.34925 188.65 5.08209 -177.376
lowerback 27.7355 -0.00977184 -0.328871
upperback 7.07687 1.3959 -1.55983
thorax -7.37992 1.34414 -2.08846
lowerneck -1.53723 6.62991 12.524
upperneck -18.8994 9.00375 -14.141
head -4.07598 5.21696 -6.77212
rclavicle 1.90833e-014 -1.59028e-015
rhumerus -11.9197 -11.1725 -58.4926
rradius 133.531
rwrist -11.0964
rhand -40.6281 43.9781
rfingers 7.12502
rthumb -13.5732 14.4406
lclavicle 1.90833e-014 -1.59028e-015
lhumerus -8.0373 7.83898 51.8375
lradius 125.78
lwrist -1.18686
lhand -42.1971 -31.7554
lfingers 7.12502
lthumb -15.085 -2.3251
rfemur -49.9091 0.38456 20.587
rtibia 70.9517
rfoot -28.0862 -23.9151
rtoes -26.8414
lfemur -50.0598 -3.24897 -11.2235
ltibia 71.7734
lfoot -27.2002 15.8819
ltoes -18.0462
271
root 8.07951 13.7606 5.32703 188.596 5.22647 -177.346
lowerback 27.0874 0.103307 -0.517059
upperback 6.96504 1.43716 -1.49141
thorax -7.19031 1.34114 -1.89587
lowerneck -1.67361 6.7293 12.4027
upperneck -18.7274 9.12877 -14.0708
head -3.99494 5.27239 -6.71029
rclavicle -4.37326e-015 1.31198e-014
rhumerus -11.3922 -10.9736 -58.516
rradius 133.293
rwrist -11.1176
rhand -40.452 44.1401
rfingers 7.12502
rthumb -13.4035 14.5913
lclavicle -4.37326e-015 1.31198e-014
lhumerus -7.35125 8.40821 52.4533
lradius 125.589
lwrist -1.12865
lhand -42.1792 -32.2049
lfingers 7.12502
lthumb -15.0678 -2.7733
rfemur -47.4064 -0.228712 20.6778
rtibia 66.9458
rfoot -26.7608 -23.0318
rtoes -27.5826
lfemur -47.5524 -2.86653 -11.3081
ltibia 67.8686
lfoot -25.8467 15.6636
ltoes -19.1244
272
root 8.08762 14.0099 5.30191 188.529 5.40068 -177.364
lowerback 26.426 0.229891 -0.748537
upperback 6.83964 1.48365 -1.44333
thorax -7.0072 1.34008 -1.70275
lowerneck -1.84035 6.83845 12.308
upperneck -18.4955 9.26256 -13.9956
head -3.88913 5.32683 -6.64607
rclavicle -1.47101e-014 3.10104e-014
rhumerus -10.7699 -10.7625 -58.6398
rradius 133.047
rwrist -11.1768
rhand -40.3086 44.3315
rfingers 7.12502
rthumb -13.2652 14.7736
lclavicle -1.47101e-014 3.10104e-014
lhumerus -6.75068 8.87018 52.9248
lradius 125.523
lwrist -1.06727
lhand -42.2421 -32.6766
lfingers 7.12502
lthumb -15.1284 -3.24955
rfemur -44.8147 -0.728866 20.6945
rtibia 62.8045
rfoot -25.3458 -22.2468
rtoes -28.4822
lfemur -44.9468 -2.5657 -11.4369
ltibia 63.8146
lfoot -24.3686 15.5864
ltoes -20.5305
273
root 8.09557 14.2507 5.27365 188.443 5.61696 -177.429
lowerback 25.7442 0.371664 -0.998709
upperback 6.69975 1.54386 -1.4359
thorax -6.82685 1.34504 -1.54764
lowerneck -2.02534 6.94874 12.2371
upperneck -18.1932 9.39709 -13.8769
head -3.76143 5.37341 -6.56719
rclavicle 2.62396e-014 4.77083e-015
rhumerus -10.0619 -10.5662 -58.9253
rradius 132.798
rwrist -11.286
rhand -40.2246 44.5286
rfingers 7.12502
rthumb -13.1843 14.9655
lclavicle 2.62396e-014 4.77083e-015
lhumerus -6.16194 9.26824 53.3059
lradius 125.532
lwrist -1.01621
lhand -42.4031 -33.1904
lfingers 7.12502
lthumb -15.2834 -3.77504
rfemur -42.1502 -1.06905 20.6369
rtibia 58.5787
rfoot -23.9077 -21.5638
rtoes -29.3703
lfemur -42.2638 -2.3563 -11.5955
ltibia 59.6663
lfoot -22.8813 15.5265
ltoes -21.6915
274
root 8.10349 14.4794 5.24216 188.326 5.87651 -177.532
lowerback 25.0338 0.5233 -1.23227
upperback 6.54717 1.62058 -1.48189
thorax -6.64193 1.35751 -1.46449
lowerneck -2.20715 7.05238 12.186
upperneck -17.8255 9.52497 -13.6899
head -3.61995 5.40756 -6.46713
rclavicle -1.03368e-014 1.98785e-015
rhumerus -9.26365 -10.3837 -59.4023
rradius 132.54
rwrist -11.4585
rhand -40.2324 44.667
rfingers 7.12502
rthumb -13.1918 15.1044
lclavicle -1.03368e-014 1.98785e-015
lhumerus -5.48333 9.69223 53.6907
lradius 125.55
lwrist -0.941406
lhand -42.6445 -33.724
lfingers 7.12502
lthumb -15.516 -4.32655
rfemur -39.4315 -1.20933 20.5152
rtibia 54.3223
rfoot -22.5008 -21.0191
rtoes -30.0983
lfemur -39.5194 -2.2676 -11.759
ltibia 55.477
lfoot -21.4993 15.4218
ltoes -22.1248
